<?xml version="1.0" encoding="iso-8859-1"?>
<!-- Uploaded to: SVG Repo, www.svgrepo.com, Generator: SVG Repo Mixer Tools -->
<!DOCTYPE svg PUBLIC "-//W3C//DTD SVG 1.1//EN" "http://www.w3.org/Graphics/SVG/1.1/DTD/svg11.dtd">
<svg fill="#000000" height="800px" width="800px" version="1.1" id="Capa_1" xmlns="http://www.w3.org/2000/svg" xmlns:xlink="http://www.w3.org/1999/xlink" 
	 viewBox="0 0 333.623 333.623" xml:space="preserve">
<path d="M55.175,251.801c35.99-3.897,73.5-5.874,111.487-5.874c39.571,0,78.578,2.142,115.938,6.366
	c4.391,0.496,7.547,4.458,7.051,8.848c-0.462,4.084-3.924,7.102-7.939,7.102c-0.3,0-0.604-0.017-0.908-0.052
	c-36.766-4.157-75.168-6.264-114.141-6.264c-37.414,0-74.345,1.945-109.765,5.781c-4.404,0.481-8.34-2.7-8.814-7.092
	C47.607,256.224,50.783,252.277,55.175,251.801z M151.567,168.777c1.521,1.341,3.408,2,5.289,2c2.216,0,4.421-0.916,6.002-2.708
	c2.923-3.313,2.606-8.369-0.707-11.292c-15.428-13.609-12.166-41.225,1.058-56.823c9.081-10.712,14.409-25.268,14.617-39.935
	c0.226-15.807-5.342-29.533-15.674-38.649c-3.314-2.923-8.369-2.608-11.292,0.707c-2.923,3.313-2.606,8.368,0.706,11.292
	c13.855,12.224,13.582,39.555-0.563,56.239C132.956,110.899,128.748,148.648,151.567,168.777z M201.831,97.316
	c-4.391-0.549-8.384,2.557-8.936,6.939c-0.551,4.384,2.556,8.384,6.939,8.936c23.84,2.997,43.767,9.666,60.038,18.87l-25.06,25.06
	c-3.124,3.124-3.124,8.189,0,11.313c3.125,3.124,8.189,3.124,11.314,0l27.425-27.425c4.813,3.626,9.212,7.511,13.203,11.604
	l-49.962,49.965c-3.124,3.125-3.124,8.189,0.001,11.314c3.124,3.125,8.189,3.123,11.313,0l48.994-48.998
	c3.919,5.413,7.256,11.076,10.026,16.903l-22.843,22.842c-3.124,3.124-3.124,8.189,0,11.313c3.125,3.125,8.189,3.125,11.314,0
	l17.746-17.746c3.528,12.236,4.83,24.852,4.059,37.178c-1.956,31.241-18.688,62.867-46.885,62.867H62.804
	c-27.838,0-41.801-26.073-45.585-50.473c-6.919-44.614,15.271-99.023,70.401-122.016c-1.462,15.896,2.952,32.062,15.367,43.014
	c3.311,2.921,8.368,2.606,11.291-0.707c2.923-3.313,2.606-8.369-0.707-11.292c-15.426-13.607-12.164-41.223,1.057-56.823
	c9.081-10.712,14.41-25.268,14.619-39.935c0.225-15.807-5.342-29.533-15.675-38.649c-3.314-2.924-8.369-2.607-11.292,0.707
	c-2.923,3.313-2.606,8.369,0.706,11.292c13.855,12.224,13.582,39.555-0.563,56.24c-4.269,5.036-7.763,10.995-10.309,17.42
	C21.577,130.256-6.933,196.445,1.409,250.231c6.031,38.891,30.131,64.021,61.396,64.021H270.52
	c33.595,0,60.028-32.748,62.854-77.868C337.162,175.87,297.958,109.4,201.831,97.316z"/>
</svg>