<svg id="visual" viewBox="0 0 960 540" width="960" height="540" xmlns="http://www.w3.org/2000/svg" xmlns:xlink="http://www.w3.org/1999/xlink" version="1.1"><path d="M0 136L87 82L175 206L262 158L349 168L436 136L524 114L611 104L698 195L785 174L873 120L960 77L960 0L873 0L785 0L698 0L611 0L524 0L436 0L349 0L262 0L175 0L87 0L0 0Z" fill="#a929a8"></path><path d="M0 233L87 179L175 314L262 206L349 255L436 249L524 147L611 206L698 249L785 255L873 185L960 174L960 75L873 118L785 172L698 193L611 102L524 112L436 134L349 166L262 156L175 204L87 80L0 134Z" fill="#941894"></path><path d="M0 336L87 320L175 411L262 303L349 325L436 325L524 260L611 266L698 379L785 325L873 233L960 303L960 172L873 183L785 253L698 247L611 204L524 145L436 247L349 253L262 204L175 312L87 177L0 231Z" fill="#800080"></path><path d="M0 428L87 363L175 471L262 395L349 406L436 357L524 352L611 357L698 411L785 395L873 314L960 357L960 301L873 231L785 323L698 377L611 264L524 258L436 323L349 323L262 301L175 409L87 318L0 334Z" fill="#6e046f"></path><path d="M0 541L87 541L175 541L262 541L349 541L436 541L524 541L611 541L698 541L785 541L873 541L960 541L960 355L873 312L785 393L698 409L611 355L524 350L436 355L349 404L262 393L175 469L87 361L0 426Z" fill="#5d075e"></path></svg>