<svg id="visual" viewBox="0 0 960 540" width="960" height="540" xmlns="http://www.w3.org/2000/svg" xmlns:xlink="http://www.w3.org/1999/xlink" version="1.1"><path d="M0 152L14.5 156.5C29 161 58 170 87.2 183.5C116.3 197 145.7 215 174.8 205.2C204 195.3 233 157.7 262 137.8C291 118 320 116 349 120.5C378 125 407 136 436.2 140.5C465.3 145 494.7 143 523.8 144.8C553 146.7 582 152.3 611 152.3C640 152.3 669 146.7 698 142.2C727 137.7 756 134.3 785.2 135.3C814.3 136.3 843.7 141.7 872.8 140.7C902 139.7 931 132.3 945.5 128.7L960 125L960 0L945.5 0C931 0 902 0 872.8 0C843.7 0 814.3 0 785.2 0C756 0 727 0 698 0C669 0 640 0 611 0C582 0 553 0 523.8 0C494.7 0 465.3 0 436.2 0C407 0 378 0 349 0C320 0 291 0 262 0C233 0 204 0 174.8 0C145.7 0 116.3 0 87.2 0C58 0 29 0 14.5 0L0 0Z" fill="#a929a8"></path><path d="M0 217L14.5 222.3C29 227.7 58 238.3 87.2 257.2C116.3 276 145.7 303 174.8 295C204 287 233 244 262 220.7C291 197.3 320 193.7 349 199C378 204.3 407 218.7 436.2 228.5C465.3 238.3 494.7 243.7 523.8 238.3C553 233 582 217 611 214.3C640 211.7 669 222.3 698 226.8C727 231.3 756 229.7 785.2 227.8C814.3 226 843.7 224 872.8 221.3C902 218.7 931 215.3 945.5 213.7L960 212L960 123L945.5 126.7C931 130.3 902 137.7 872.8 138.7C843.7 139.7 814.3 134.3 785.2 133.3C756 132.3 727 135.7 698 140.2C669 144.7 640 150.3 611 150.3C582 150.3 553 144.7 523.8 142.8C494.7 141 465.3 143 436.2 138.5C407 134 378 123 349 118.5C320 114 291 116 262 135.8C233 155.7 204 193.3 174.8 203.2C145.7 213 116.3 195 87.2 181.5C58 168 29 159 14.5 154.5L0 150Z" fill="#941894"></path><path d="M0 271L14.5 281.8C29 292.7 58 314.3 87.2 329.7C116.3 345 145.7 354 174.8 343.2C204 332.3 233 301.7 262 288.2C291 274.7 320 278.3 349 277.5C378 276.7 407 271.3 436.2 278.5C465.3 285.7 494.7 305.3 523.8 308.8C553 312.3 582 299.7 611 298.8C640 298 669 309 698 314.5C727 320 756 320 785.2 319C814.3 318 843.7 316 872.8 303.3C902 290.7 931 267.3 945.5 255.7L960 244L960 210L945.5 211.7C931 213.3 902 216.7 872.8 219.3C843.7 222 814.3 224 785.2 225.8C756 227.7 727 229.3 698 224.8C669 220.3 640 209.7 611 212.3C582 215 553 231 523.8 236.3C494.7 241.7 465.3 236.3 436.2 226.5C407 216.7 378 202.3 349 197C320 191.7 291 195.3 262 218.7C233 242 204 285 174.8 293C145.7 301 116.3 274 87.2 255.2C58 236.3 29 225.7 14.5 220.3L0 215Z" fill="#800080"></path><path d="M0 357L14.5 367C29 377 58 397 87.2 406C116.3 415 145.7 413 174.8 412C204 411 233 411 262 396.7C291 382.3 320 353.7 349 352C378 350.3 407 375.7 436.2 395.5C465.3 415.3 494.7 429.7 523.8 428.7C553 427.7 582 411.3 611 402.3C640 393.3 669 391.7 698 391.7C727 391.7 756 393.3 785.2 399.7C814.3 406 843.7 417 872.8 401.7C902 386.3 931 344.7 945.5 323.8L960 303L960 242L945.5 253.7C931 265.3 902 288.7 872.8 301.3C843.7 314 814.3 316 785.2 317C756 318 727 318 698 312.5C669 307 640 296 611 296.8C582 297.7 553 310.3 523.8 306.8C494.7 303.3 465.3 283.7 436.2 276.5C407 269.3 378 274.7 349 275.5C320 276.3 291 272.7 262 286.2C233 299.7 204 330.3 174.8 341.2C145.7 352 116.3 343 87.2 327.7C58 312.3 29 290.7 14.5 279.8L0 269Z" fill="#6e046f"></path><path d="M0 541L14.5 541C29 541 58 541 87.2 541C116.3 541 145.7 541 174.8 541C204 541 233 541 262 541C291 541 320 541 349 541C378 541 407 541 436.2 541C465.3 541 494.7 541 523.8 541C553 541 582 541 611 541C640 541 669 541 698 541C727 541 756 541 785.2 541C814.3 541 843.7 541 872.8 541C902 541 931 541 945.5 541L960 541L960 301L945.5 321.8C931 342.7 902 384.3 872.8 399.7C843.7 415 814.3 404 785.2 397.7C756 391.3 727 389.7 698 389.7C669 389.7 640 391.3 611 400.3C582 409.3 553 425.7 523.8 426.7C494.7 427.7 465.3 413.3 436.2 393.5C407 373.7 378 348.3 349 350C320 351.7 291 380.3 262 394.7C233 409 204 409 174.8 410C145.7 411 116.3 413 87.2 404C58 395 29 375 14.5 365L0 355Z" fill="#5d075e"></path></svg>